%TF.GenerationSoftware,KiCad,Pcbnew,10.0.0*%
%TF.CreationDate,2026-03-30T11:03:50+06:00*%
%TF.ProjectId,Version2.0,56657273-696f-46e3-922e-302e6b696361,rev?*%
%TF.SameCoordinates,Original*%
%TF.FileFunction,Soldermask,Top*%
%TF.FilePolarity,Negative*%
%FSLAX46Y46*%
G04 Gerber Fmt 4.6, Leading zero omitted, Abs format (unit mm)*
G04 Created by KiCad (PCBNEW 10.0.0) date 2026-03-30 11:03:50*
%MOMM*%
%LPD*%
G01*
G04 APERTURE LIST*
G04 Aperture macros list*
%AMRoundRect*
0 Rectangle with rounded corners*
0 $1 Rounding radius*
0 $2 $3 $4 $5 $6 $7 $8 $9 X,Y pos of 4 corners*
0 Add a 4 corners polygon primitive as box body*
4,1,4,$2,$3,$4,$5,$6,$7,$8,$9,$2,$3,0*
0 Add four circle primitives for the rounded corners*
1,1,$1+$1,$2,$3*
1,1,$1+$1,$4,$5*
1,1,$1+$1,$6,$7*
1,1,$1+$1,$8,$9*
0 Add four rect primitives between the rounded corners*
20,1,$1+$1,$2,$3,$4,$5,0*
20,1,$1+$1,$4,$5,$6,$7,0*
20,1,$1+$1,$6,$7,$8,$9,0*
20,1,$1+$1,$8,$9,$2,$3,0*%
%AMFreePoly0*
4,1,9,3.862500,-0.866500,0.737500,-0.866500,0.737500,-0.450000,-0.737500,-0.450000,-0.737500,0.450000,0.737500,0.450000,0.737500,0.866500,3.862500,0.866500,3.862500,-0.866500,3.862500,-0.866500,$1*%
G04 Aperture macros list end*
%ADD10R,1.000000X2.500000*%
%ADD11R,1.800000X1.000000*%
%ADD12RoundRect,0.250000X0.262500X0.450000X-0.262500X0.450000X-0.262500X-0.450000X0.262500X-0.450000X0*%
%ADD13RoundRect,0.250000X-0.262500X-0.450000X0.262500X-0.450000X0.262500X0.450000X-0.262500X0.450000X0*%
%ADD14RoundRect,0.250000X0.475000X-0.250000X0.475000X0.250000X-0.475000X0.250000X-0.475000X-0.250000X0*%
%ADD15RoundRect,0.250000X-0.250000X-0.475000X0.250000X-0.475000X0.250000X0.475000X-0.250000X0.475000X0*%
%ADD16R,2.800000X2.800000*%
%ADD17R,1.500000X1.500000*%
%ADD18C,1.500000*%
%ADD19RoundRect,0.250000X-0.325000X-1.100000X0.325000X-1.100000X0.325000X1.100000X-0.325000X1.100000X0*%
%ADD20RoundRect,0.225000X0.225000X-0.425000X0.225000X0.425000X-0.225000X0.425000X-0.225000X-0.425000X0*%
%ADD21FreePoly0,90.000000*%
%ADD22C,2.000000*%
%ADD23RoundRect,0.250000X-0.600000X-0.725000X0.600000X-0.725000X0.600000X0.725000X-0.600000X0.725000X0*%
%ADD24O,1.700000X1.950000*%
%ADD25RoundRect,0.250000X-0.450000X0.262500X-0.450000X-0.262500X0.450000X-0.262500X0.450000X0.262500X0*%
%ADD26RoundRect,0.243750X-0.456250X0.243750X-0.456250X-0.243750X0.456250X-0.243750X0.456250X0.243750X0*%
%ADD27RoundRect,0.150000X-0.825000X-0.150000X0.825000X-0.150000X0.825000X0.150000X-0.825000X0.150000X0*%
%ADD28RoundRect,0.250000X0.325000X1.100000X-0.325000X1.100000X-0.325000X-1.100000X0.325000X-1.100000X0*%
G04 APERTURE END LIST*
D10*
%TO.C,U2*%
X165450000Y-58150000D03*
X163450000Y-58150000D03*
X161450000Y-58150000D03*
X159450000Y-58150000D03*
X157450000Y-58150000D03*
X155450000Y-58150000D03*
X153450000Y-58150000D03*
X151450000Y-58150000D03*
D11*
X149950000Y-60750000D03*
X149950000Y-62750000D03*
X149950000Y-64750000D03*
X149950000Y-66750000D03*
X149950000Y-68750000D03*
X149950000Y-70750000D03*
D10*
X151450000Y-73350000D03*
X153450000Y-73350000D03*
X155450000Y-73350000D03*
X157450000Y-73350000D03*
X159450000Y-73350000D03*
X161450000Y-73350000D03*
X163450000Y-73350000D03*
X165450000Y-73350000D03*
%TD*%
D12*
%TO.C,R9*%
X134412500Y-76000000D03*
X132587500Y-76000000D03*
%TD*%
D13*
%TO.C,R5*%
X151175000Y-76250000D03*
X153000000Y-76250000D03*
%TD*%
D14*
%TO.C,C5*%
X147500000Y-76450000D03*
X147500000Y-74550000D03*
%TD*%
D15*
%TO.C,C1*%
X161350000Y-55000000D03*
X163250000Y-55000000D03*
%TD*%
D12*
%TO.C,R1*%
X153412500Y-55000000D03*
X151587500Y-55000000D03*
%TD*%
D16*
%TO.C,U3*%
X111337500Y-58137500D03*
X111337500Y-72337500D03*
X134237500Y-58137500D03*
X134237500Y-72637500D03*
X134237500Y-61637500D03*
X134237500Y-69237500D03*
%TD*%
D17*
%TO.C,U5*%
X178500000Y-65630000D03*
D18*
X178500000Y-68170000D03*
X178500000Y-70710000D03*
X178500000Y-73250000D03*
%TD*%
D19*
%TO.C,C2*%
X146025000Y-55000000D03*
X148975000Y-55000000D03*
%TD*%
D20*
%TO.C,U4*%
X140500000Y-57700000D03*
D21*
X142000000Y-57612500D03*
D20*
X143500000Y-57700000D03*
%TD*%
D13*
%TO.C,R6*%
X145425000Y-68250000D03*
X147250000Y-68250000D03*
%TD*%
D22*
%TO.C,SW1*%
X138250000Y-68250000D03*
X138250000Y-61750000D03*
X142750000Y-68250000D03*
X142750000Y-61750000D03*
%TD*%
D23*
%TO.C,STEMMA1*%
X177750000Y-56250000D03*
D24*
X180250000Y-56250000D03*
X182750000Y-56250000D03*
X185250000Y-56250000D03*
X187750000Y-56250000D03*
%TD*%
D13*
%TO.C,R4*%
X157925000Y-76250000D03*
X159750000Y-76250000D03*
%TD*%
D25*
%TO.C,R7*%
X146250000Y-59337500D03*
X146250000Y-61162500D03*
%TD*%
D26*
%TO.C,D1*%
X146250000Y-64125000D03*
X146250000Y-66000000D03*
%TD*%
D12*
%TO.C,R8*%
X168000000Y-55000000D03*
X166175000Y-55000000D03*
%TD*%
%TO.C,R3*%
X172250000Y-55000000D03*
X170425000Y-55000000D03*
%TD*%
D27*
%TO.C,U1*%
X139525000Y-72095000D03*
X139525000Y-73365000D03*
X139525000Y-74635000D03*
X139525000Y-75905000D03*
X144475000Y-75905000D03*
X144475000Y-74635000D03*
X144475000Y-73365000D03*
X144475000Y-72095000D03*
%TD*%
D28*
%TO.C,C3*%
X131725000Y-54750000D03*
X128775000Y-54750000D03*
%TD*%
D12*
%TO.C,R2*%
X158412500Y-55000000D03*
X156587500Y-55000000D03*
%TD*%
M02*
